# AST/ASF file generated using VICON BodyLanguage
# -----------------------------------------------
:version 1.10
:name VICON
:units
  mass 1.0
  length 0.45
  angle deg
:documentation
   .ast/.asf automatically generated from VICON data using
   VICON BodyBuilder and BodyLanguage model FoxedUp or BRILLIANT.MOD
:root
   order TX TY TZ RX RY RZ
   axis XYZ
   position 0 0 0  
   orientation 0 0 0 
:bonedata
  begin
     id 1 
     name lhipjoint
     direction 0.611804 -0.747784 0.257906 
     length 2.29243 
     axis 0 0 0  XYZ
  end
  begin
     id 2 
     name lfemur
     direction 0.34202 -0.939693 0  
     length 7.31159  
     axis 0 0 20  XYZ
    dof rx ry rz
    limits (-160.0 20.0)
           (-70.0 70.0)
           (-60.0 70.0)
  end
  begin
     id 3 
     name ltibia
     direction 0.34202 -0.939693 0   
     length 7.33391   
     axis 0 0 20   XYZ
    dof rx
    limits (-10.0 170.0)
  end
  begin
     id 4 
     name lfoot
     direction 0.122263 -0.335914 0.933924   
     length 1.76083   
     axis -90 7.62852e-016 20   XYZ
    dof rx rz
    limits (-45.0 90.0)
           (-70.0 20.0)
  end
  begin
     id 5 
     name ltoes
     direction 1.53533e-011 -4.2177e-011 1   
     length 0.879206   
     axis -90 7.62852e-016 20   XYZ
    dof rx
    limits (-90.0 20.0)
  end
  begin
     id 6 
     name rhipjoint
     direction -0.646469 -0.721248 0.248754   
     length 2.37677  
     axis 0 0 0  XYZ 
  end
  begin
     id 7 
     name rfemur
     direction -0.34202 -0.939693 0   
     length 7.18623   
     axis 0 0 -20   XYZ
    dof rx ry rz
    limits (-160.0 20.0)
           (-70.0 70.0)
           (-70.0 60.0)
  end
  begin
     id 8 
     name rtibia
     direction -0.34202 -0.939693 0   
     length 7.36567   
     axis 0 0 -20   XYZ
    dof rx
    limits (-10.0 170.0)
 end
 begin
     id 9 
     name rfoot
     direction -0.126681 -0.348054 0.928876   
     length 1.71902  
     axis -90 -7.62852e-016 -20   XYZ
    dof rx rz
    limits (-45.0 90.0)
           (-20.0 70.0)
  end
  begin
     id 10 
     name rtoes
     direction -1.53551e-011 -4.21898e-011 1   
     length 0.857792   
     axis -90 -7.62852e-016 -20   XYZ
    dof rx
    limits (-90.0 20.0)
  end
  begin
     id 11 
     name lowerback
     direction 0.0106509 0.999778 0.0181844   
     length 2.07668   
     axis 0 0 0   XYZ
    dof rx ry rz
    limits (-20.0 45.0)
           (-30.0 30.0)
           (-30.0 30.0)
  end
  begin
     id 12 
     name upperback
     direction -0.00456018 0.999989 -0.000590935   
     length 2.08011   
     axis 0 0 0   XYZ
    dof rx ry rz
    limits (-20.0 45.0)
           (-30.0 30.0)
           (-30.0 30.0)
  end
  begin
     id 13 
     name thorax
     direction -0.00910382 0.999916 -0.00923765   
     length 2.07397   
     axis 0 0 0   XYZ
    dof rx ry rz
    limits (-20.0 45.0)
           (-30.0 30.0)
           (-30.0 30.0)
  end
  begin
     id 14 
     name lowerneck
     direction 0.00171967 0.99778 0.0665733   
     length 1.67556   
     axis 0 0 0   XYZ
    dof rx ry rz
    limits (-20.0 45.0)
           (-30.0 30.0)
           (-30.0 30.0)
  end
  begin
     id 15 
     name upperneck
     direction -0.0143166 0.991302 -0.130828   
     length 1.68462   
     axis 0 0 0   XYZ
    dof rx ry rz
    limits (-20.0 45.0)
           (-30.0 30.0)
           (-30.0 30.0)
  end
  begin
     id 16
     name head
     direction -0.00606378 0.998665 -0.0512995  
     length 1.69269  
     axis 0 0 0   XYZ
    dof rx ry rz
    limits (-20.0 45.0)
           (-30.0 30.0)
           (-30.0 30.0)
  end
  begin
     id 17 
     name lclavicle
     direction 0.9638 0.179341 0.197297  
     length 4.12888  
     axis 0 0 0   XYZ
    dof ry rz
    limits (-20.0 10.0)
           (0.0 20.0)
  end
  begin
     id 18 
     name lhumerus
     direction 1 -4.48972e-011 -2.47351e-027   
     length 5.01834   
     axis -180 -30 -90   XYZ
    dof rx ry rz
    limits (-60.0 90.0)
           (-90.0 90.0)
           (-90.0 90.0)
  end
  begin
     id 19
     name lradius
     direction 1 -4.48965e-011 1.51591e-026   
     length 3.4869   
     axis -180 -30 -90   XYZ
    dof rx
    limits (-10.0 170.0)
  end
  begin
     id 20
     name lwrist
     direction 1 -4.48957e-011 2.70032e-026   
     length 1.74345   
     axis -1.81515e-014 90 90   XYZ
    dof ry
    limits (-180.0 0.0)
 end
  begin
     id 21 
     name lhand
     direction 1 -4.48951e-011 5.40064e-026   
     length 0.76799   
     axis -3.44607e-014 90 90   XYZ
    dof rx rz
    limits (-90.0 90.0)
           (-45.0 45.0)
  end
  begin
     id 22 
     name lfingers
     direction 1 -4.48971e-011 1.08013e-025   
     length 0.619174   
     axis -6.89214e-014 90 90   XYZ
    dof rx
    limits (0.0 90.0)
  end
  begin
     id 23
     name lthumb
     direction 0.707107 -6.34931e-011 0.707107   
     length 0.889013   
     axis -90 45 2.85299e-015   XYZ
    dof rx rz
    limits (-45.0 45.0)
           (-45.0 45.0)
  end
  begin
     id 24 
     name rclavicle
     direction -0.961409 0.252588 0.109054   
     length 4.04305  
     axis 0 0 0   XYZ 
    dof ry rz
    limits (-10.0 20.0)
           (-20.0 0.0)
  end
  begin
     id 25 
     name rhumerus
     direction -1 -4.4897e-011 1.33872e-017  
     length 4.70164   
     axis -180 30 90   XYZ
    dof rx ry rz
    limits (-90.0 60.0)
           (-90.0 90.0)
           (-90.0 90.0)
  end
  begin
     id 26 
     name rradius
     direction -1 -4.48954e-011 1.83844e-026   
     length 3.49911   
     axis -180 30 90   XYZ
    dof rx
    limits (-10.0 170.0)
  end
  begin
     id 27 
     name rwrist
     direction -1 -4.49008e-011 2.70032e-026   
     length 1.74955   
     axis -1.81515e-014 -90 -90   XYZ
    dof ry
    limits (-180.0 0.0)
  end
  begin
     id 28
     name rhand
     direction -1 -4.48916e-011 5.40064e-026   
     length 0.739335   
     axis -3.44607e-014 -90 -90   XYZ
    dof rx rz
    limits (-90.0 90.0)
           (-45.0 45.0)
  end
  begin
     id 29
     name rfingers
     direction -1 -4.48987e-011 1.08013e-025   
     length 0.596071   
     axis -6.89214e-014 -90 -90   XYZ
    dof rx
    limits (0.0 90.0)
  end
  begin
     id 30
     name rthumb
     direction -0.707107 -6.34935e-011 0.707107   
     length 0.855843   
     axis -90 -45 -2.85299e-015   XYZ
    dof rx rz
    limits (-45.0 45.0)
           (-45.0 45.0)
  end
:hierarchy
  begin
    root lhipjoint rhipjoint lowerback
    lhipjoint lfemur
    lfemur ltibia
    ltibia lfoot
    lfoot ltoes
    rhipjoint rfemur
    rfemur rtibia
    rtibia rfoot
    rfoot rtoes
    lowerback upperback
    upperback thorax
    thorax lowerneck lclavicle rclavicle
    lowerneck upperneck
    upperneck head
    lclavicle lhumerus
    lhumerus lradius
    lradius lwrist
    lwrist lhand lthumb
    lhand lfingers
    rclavicle rhumerus
    rhumerus rradius
    rradius rwrist
    rwrist rhand rthumb
    rhand rfingers
  end

#!OML:ASF I:\salsa\salsa 7_09\Patient 1\Session 1\dancermale.ASF
:FULLY-SPECIFIED
:DEGREES
210
root -4.61283 17.2895 0.58037 29.6465 82.1947 19.8684
lowerback -11.5118 4.91997 -0.955881
upperback -0.0689519 6.97784 -3.59365
thorax 6.71056 3.47513 -2.03973
lowerneck -9.85059 -1.67615 0.8268
upperneck 16.1646 -1.92139 -2.00713
head 6.50896 -0.977757 -0.932427
rclavicle -1.09332e-014 -2.82274e-014
rhumerus -30.7048 -19.7303 -91.4765
rradius 29.1488
rwrist 28.8944
rhand -26.4058 7.01195
rfingers 7.12502
rthumb 0.153839 -22.9677
lclavicle -1.09332e-014 -2.82274e-014
lhumerus -30.542 20.1039 78.0744
lradius 20.0259
lwrist -7.23901
lhand -21.7018 43.2634
lfingers 7.12502
lthumb 4.69675 73.1913
rfemur -4.91899 -4.08025 12.8147
rtibia 47.3185
rfoot 8.87144 4.06365
rtoes 17.7779
lfemur -19.2843 12.1407 -27.1482
ltibia 9.12231
lfoot -6.3039 3.02781
ltoes 6.92079
211
root -4.40441 17.2879 0.551066 29.965 82.0856 20.6138
lowerback -11.2975 4.91704 -1.11719
upperback 0.0306143 6.9876 -3.54669
thorax 6.67075 3.47394 -1.91435
lowerneck -9.93495 -1.60456 0.505572
upperneck 16.5356 -1.77753 -1.87572
head 6.64937 -0.913223 -0.829136
rclavicle 1.37658e-014 -1.23246e-014
rhumerus -30.9827 -19.9626 -90.7984
rradius 29.2463
rwrist 29.3124
rhand -26.3181 6.3311
rfingers 7.12502
rthumb 0.238559 -23.6485
lclavicle 1.37658e-014 -1.23246e-014
lhumerus -29.865 18.108 79.5808
lradius 21.0715
lwrist -4.83783
lhand -21.4251 43.5691
lfingers 7.12502
lthumb 4.96393 73.491
rfemur -6.51925 -4.64534 12.2497
rtibia 51.043
rfoot 9.60647 4.38807
rtoes 20.1902
lfemur -17.9824 11.4739 -27.1481
ltibia 9.164
lfoot -7.05193 3.66463
ltoes 8.06768
212
root -4.20228 17.2847 0.521728 31.2675 81.9191 22.3643
lowerback -11.0908 4.90534 -1.40364
upperback 0.122822 7.00721 -3.55721
thorax 6.62015 3.47543 -1.77855
lowerneck -9.67017 -1.63772 0.475935
upperneck 16.5084 -1.78157 -2.05223
head 6.59273 -0.92865 -0.877861
rclavicle 8.44835e-016 2.70347e-014
rhumerus -31.2731 -20.5327 -90.0101
rradius 29.2727
rwrist 29.8374
rhand -26.4726 5.94459
rfingers 7.12502
rthumb 0.0892704 -24.0351
lclavicle 8.44835e-016 2.70347e-014
lhumerus -29.2271 15.8465 81.0887
lradius 22.1622
lwrist -2.35962
lhand -21.3367 43.6227
lfingers 7.12502
lthumb 5.04925 73.5425
rfemur -8.15892 -5.13212 11.6563
rtibia 54.6634
rfoot 7.02669 2.48616
rtoes 7.86458
lfemur -16.7396 10.9333 -27.3881
ltibia 9.29675
lfoot -7.88136 4.21794
ltoes 10.1221
213
root -4.00342 17.2861 0.492019 33.5112 81.7535 24.9491
lowerback -11.0715 4.86892 -1.7475
upperback 0.191145 7.01506 -3.64867
thorax 6.65322 3.47036 -1.68272
lowerneck -9.39733 -1.6537 0.517856
upperneck 16.7594 -1.78885 -2.07643
head 6.62429 -0.925235 -0.891982
rclavicle -2.82274e-014 2.0276e-014
rhumerus -31.5775 -21.2253 -89.2345
rradius 29.3278
rwrist 30.028
rhand -26.7776 5.72487
rfingers 7.12502
rthumb -0.205316 -24.2548
lclavicle -2.82274e-014 2.0276e-014
lhumerus -28.5891 13.5762 82.437
lradius 23.1866
lwrist -0.110469
lhand -21.1447 43.5378
lfingers 7.12502
lthumb 5.23463 73.4531
rfemur -9.95372 -5.61735 11.0724
rtibia 57.8809
rfoot 4.31703 -0.372463
rtoes 7.07506
lfemur -15.6791 10.8425 -27.8842
ltibia 9.46523
lfoot -8.76219 4.28622
ltoes 11.0086
214
root -3.81127 17.2942 0.458461 35.9643 81.5693 27.5538
lowerback -11.2202 4.78845 -2.03839
upperback 0.237323 6.9675 -3.77161
thorax 6.76685 3.4393 -1.64477
lowerneck -8.99369 -1.63021 0.740005
upperneck 16.7581 -1.74466 -2.29543
head 6.549 -0.902865 -0.990457
rclavicle -2.78299e-015 2.66371e-014
rhumerus -31.6993 -22.0083 -88.4984
rradius 29.2956
rwrist 30.0666
rhand -26.9144 5.42012
rfingers 7.12502
rthumb -0.337394 -24.5594
lclavicle -2.78299e-015 2.66371e-014
lhumerus -27.8731 11.6789 83.6017
lradius 24.1932
lwrist 1.815
lhand -20.6706 43.4739
lfingers 7.12502
lthumb 5.69239 73.3775
rfemur -12.0042 -6.04228 10.5542
rtibia 60.5414
rfoot 1.73259 -3.05924
rtoes 7.55719
lfemur -14.9473 11.5851 -28.5422
ltibia 9.74977
lfoot -9.67847 3.57834
ltoes 10.7606
215
root -3.62836 17.2944 0.436693 35.7858 81.8067 27.6843
lowerback -11.1195 4.65158 -1.92293
upperback 0.350417 6.76274 -3.69253
thorax 6.82861 3.33953 -1.6641
lowerneck -8.75218 -1.60501 0.873279
upperneck 16.9126 -1.6811 -2.50135
head 6.55347 -0.875385 -1.07168
rclavicle -5.57094e-014 3.57812e-014
rhumerus -31.5684 -23.0382 -87.7427
rradius 29.0033
rwrist 29.956
rhand -27.0299 5.52807
rfingers 7.12502
rthumb -0.448935 -24.4512
lclavicle -5.57094e-014 3.57812e-014
lhumerus -27.082 9.8261 84.756
lradius 25.2344
lwrist 3.96603
lhand -20.2255 43.3486
lfingers 7.12502
lthumb 6.12211 73.2401
rfemur -13.7851 -6.20008 10.8047
rtibia 62.4554
rfoot -0.64564 -5.45783
rtoes 8.12016
lfemur -14.1404 12.8199 -28.4467
ltibia 10.1802
lfoot -10.5889 2.44243
ltoes 10.2693
216
root -3.45853 17.304 0.405143 36.1043 82.1164 28.1845
lowerback -11.0251 4.50853 -1.65739
upperback 0.423704 6.53254 -3.65383
thorax 6.8724 3.2345 -1.81361
lowerneck -8.71061 -1.60563 0.786237
upperneck 17.3683 -1.6525 -2.45268
head 6.69378 -0.856811 -1.04272
rclavicle 3.66261e-014 -4.09496e-014
rhumerus -31.2652 -24.1548 -87.0626
rradius 28.7697
rwrist 29.2253
rhand -26.9921 5.67014
rfingers 7.12502
rthumb -0.412437 -24.3092
lclavicle 3.66261e-014 -4.09496e-014
lhumerus -26.2583 7.99367 85.8891
lradius 26.3098
lwrist 6.09282
lhand -19.7922 43.5102
lfingers 7.12502
lthumb 6.54045 73.3892
rfemur -15.6519 -6.17329 11.0843
rtibia 63.6985
rfoot -2.88316 -7.46253
rtoes 8.09429
lfemur -13.4486 13.3693 -28.4132
ltibia 10.5236
lfoot -11.3726 1.87772
ltoes 9.65276
217
root -3.28549 17.3115 0.382005 35.7938 82.4159 28.1183
lowerback -10.9657 4.42063 -1.40355
upperback 0.556894 6.37729 -3.57431
thorax 6.99433 3.16358 -1.89634
lowerneck -8.79751 -1.70091 0.457422
upperneck 17.8533 -1.77382 -2.09599
head 6.87022 -0.901973 -0.888604
rclavicle -2.08227e-014 3.81667e-014
rhumerus -30.9543 -24.9465 -86.5346
rradius 28.9215
rwrist 27.9673
rhand -26.8073 5.23288
rfingers 7.12502
rthumb -0.233965 -24.7467
lclavicle -2.08227e-014 3.81667e-014
lhumerus -25.393 6.33478 86.9969
lradius 27.4645
lwrist 7.9733
lhand -19.5502 44.09
lfingers 7.12502
lthumb 6.77402 73.9617
rfemur -17.3502 -5.75803 11.5077
rtibia 64.2359
rfoot -5.12349 -8.94149
rtoes 7.36475
lfemur -12.4719 13.1261 -28.1756
ltibia 10.5242
lfoot -11.9454 2.03126
ltoes 9.51831
218
root -3.11572 17.3071 0.365718 34.2437 82.9233 27.0792
lowerback -10.5859 4.29864 -0.995827
upperback 0.756 6.14021 -3.41095
thorax 7.00741 3.05798 -2.01219
lowerneck -8.81111 -1.72625 0.355184
upperneck 18.1973 -1.79564 -1.98614
head 6.98559 -0.905469 -0.840865
rclavicle 6.70898e-015 1.23246e-014
rhumerus -30.8393 -25.2371 -86.1439
rradius 29.4322
rwrist 26.7007
rhand -26.8305 4.67183
rfingers 7.12502
rthumb -0.256392 -25.3078
lclavicle 6.70898e-015 1.23246e-014
lhumerus -24.5807 4.49573 88.1238
lradius 28.7786
lwrist 10.1749
lhand -19.6805 44.5415
lfingers 7.12502
lthumb 6.64825 74.4172
rfemur -18.6685 -5.14301 12.1875
rtibia 64.2161
rfoot -7.54722 -9.91549
rtoes 7.53535
lfemur -11.1628 12.4877 -27.5873
ltibia 10.4467
lfoot -12.4497 2.51379
ltoes 9.08856
219
root -2.95155 17.3098 0.346365 32.7025 83.4599 25.6629
lowerback -10.533 4.14511 -0.492602
upperback 0.829403 5.86108 -3.30251
thorax 7.08401 2.93633 -2.22588
lowerneck -8.84531 -1.77792 0.180341
upperneck 18.5606 -1.86038 -1.78019
head 7.11269 -0.926294 -0.753914
rclavicle -5.04416e-014 2.18663e-014
rhumerus -30.8567 -25.147 -85.9382
rradius 30.2181
rwrist 25.2665
rhand -26.9822 4.32602
rfingers 7.12502
rthumb -0.402923 -25.6533
lclavicle -5.04416e-014 2.18663e-014
lhumerus -23.8833 2.44855 89.1406
lradius 30.284
lwrist 12.5305
lhand -19.771 44.8773
lfingers 7.12502
lthumb 6.56085 74.7556
rfemur -20.452 -4.47343 12.9054
rtibia 63.8626
rfoot -9.9171 -10.666
rtoes 8.10786
lfemur -10.4947 11.746 -27.137
ltibia 10.6616
lfoot -13.0617 3.16432
ltoes 7.9855
220
root -2.78977 17.3179 0.330484 29.4641 84.0217 22.3119
lowerback -10.7425 4.04413 0.136228
upperback 0.873242 5.63567 -3.15445
thorax 7.28558 2.84396 -2.44283
lowerneck -8.82805 -1.81585 0.174596
upperneck 18.7844 -1.92196 -1.67013
head 7.18285 -0.943327 -0.724057
rclavicle 6.34123e-014 -6.75868e-014
rhumerus -30.8198 -24.8026 -85.8787
rradius 31.2126
rwrist 23.3949
rhand -27.243 4.07365
rfingers 7.12502
rthumb -0.654749 -25.9051
lclavicle 6.34123e-014 -6.75868e-014
lhumerus -23.2021 0.497779 90.0779
lradius 31.8717
lwrist 14.5767
lhand -19.7641 45.4635
lfingers 7.12502
lthumb 6.5676 75.3417
rfemur -22.4337 -3.74288 13.8238
rtibia 63.0234
rfoot -11.7919 -11.3991
rtoes 7.60024
lfemur -10.1733 10.9932 -26.5293
ltibia 11.0298
lfoot -13.7269 3.85576
ltoes 7.64648
221
root -2.63078 17.325 0.315502 24.6887 84.5161 17.4657
lowerback -10.9227 3.97148 0.774537
upperback 0.975003 5.43814 -2.94124
thorax 7.52539 2.76541 -2.59384
lowerneck -8.90189 -1.8439 0.17302
upperneck 18.94 -1.97017 -1.59199
head 7.24701 -0.95839 -0.70465
rclavicle -2.33572e-014 -9.93923e-015
rhumerus -30.6874 -24.0948 -85.9214
rradius 32.3365
rwrist 21.137
rhand -27.5923 3.9911
rfingers 7.12502
rthumb -0.992112 -25.9863
lclavicle -2.33572e-014 -9.93923e-015
lhumerus -22.4722 -1.32568 90.9945
lradius 33.4719
lwrist 16.4384
lhand -19.6371 45.896
lfingers 7.12502
lthumb 6.69015 75.7703
rfemur -24.2689 -2.95532 14.7859
rtibia 61.7084
rfoot -13.0986 -12.1095
rtoes 6.90816
lfemur -9.72994 10.2189 -25.8309
ltibia 11.2701
lfoot -14.2364 4.51931
ltoes 7.62959
222
root -2.47541 17.3285 0.302657 19.239 84.9508 11.9741
lowerback -11.0374 3.88884 1.37272
upperback 1.09577 5.22969 -2.73002
thorax 7.74203 2.68224 -2.73182
lowerneck -8.91475 -1.87757 0.304281
upperneck 18.8582 -2.03228 -1.65026
head 7.21966 -0.985862 -0.750422
rclavicle -1.1281e-014 1.19271e-015
rhumerus -30.5576 -23.3397 -85.9748
rradius 33.5522
rwrist 19.08
rhand -27.7007 4.22894
rfingers 7.12502
rthumb -1.09688 -25.748
lclavicle -1.1281e-014 1.19271e-015
lhumerus -21.6785 -3.0595 91.7954
lradius 35.034
lwrist 18.2528
lhand -19.6156 45.8354
lfingers 7.12502
lthumb 6.71087 75.709
rfemur -26.0107 -2.17754 15.6761
rtibia 60.0463
rfoot -14.0959 -12.721
rtoes 6.70155
lfemur -9.20545 9.50731 -25.1519
ltibia 11.3573
lfoot -14.5378 5.15191
ltoes 6.70762
223
root -2.31997 17.3312 0.293099 12.6977 85.2716 5.33169
lowerback -11.1498 3.84424 1.98126
upperback 1.14773 5.06989 -2.5495
thorax 7.88904 2.62501 -2.9025
lowerneck -8.98067 -1.90171 0.301038
upperneck 18.9953 -2.10345 -1.43322
head 7.27797 -0.999822 -0.687548
rclavicle 1.85367e-014 -6.75868e-015
rhumerus -30.5524 -22.7752 -85.9536
rradius 34.8731
rwrist 17.712
rhand -27.7923 4.15866
rfingers 7.12502
rthumb -1.18532 -25.8178
lclavicle 1.85367e-014 -6.75868e-015
lhumerus -20.9457 -4.73909 92.492
lradius 36.5117
lwrist 20.0059
lhand -19.7968 45.9794
lfingers 7.12502
lthumb 6.53599 75.8586
rfemur -27.7242 -1.36303 16.5424
rtibia 58.1118
rfoot -14.952 -13.2158
rtoes 6.1758
lfemur -8.70316 8.95606 -24.4579
ltibia 11.3558
lfoot -14.7861 5.70177
ltoes 5.84696
224
root -2.16053 17.3319 0.288959 4.74275 85.4858 -2.73155
lowerback -11.2536 3.80071 2.5445
upperback 1.16266 4.90893 -2.29425
thorax 7.97807 2.56311 -2.97113
lowerneck -9.04399 -1.93977 0.242139
upperneck 19.1178 -2.1401 -1.44326
head 7.32951 -1.02123 -0.685904
rclavicle -5.58585e-014 3.1408e-014
rhumerus -30.5584 -22.1225 -85.8563
rradius 36.193
rwrist 16.5085
rhand -27.9628 3.76981
rfingers 7.12502
rthumb -1.34994 -26.2057
lclavicle -5.58585e-014 3.1408e-014
lhumerus -20.3961 -6.19344 93.177
lradius 38.0677
lwrist 21.6903
lhand -19.5366 46.6077
lfingers 7.12502
lthumb 6.78721 76.4789
rfemur -29.2539 -0.510017 17.4431
rtibia 55.8524
rfoot -15.6361 -13.5771
rtoes 5.11003
lfemur -8.17128 8.49617 -23.6795
ltibia 11.3353
lfoot -15.0659 6.14369
ltoes 5.62481
